<mxfile host="65bd71144e">
    <diagram id="_TGMF0xEv0YuwpSCFXKQ" name="Page-1">
        <mxGraphModel dx="896" dy="608" grid="1" gridSize="10" guides="1" tooltips="1" connect="1" arrows="1" fold="1" page="1" pageScale="1" pageWidth="827" pageHeight="1169" math="0" shadow="0">
            <root>
                <mxCell id="0"/>
                <mxCell id="1" parent="0"/>
                <mxCell id="9" style="edgeStyle=none;html=1;fontFamily=Verdana;fontSize=16;fillColor=#d80073;strokeColor=#A50040;strokeWidth=4;" edge="1" parent="1" source="6">
                    <mxGeometry relative="1" as="geometry">
                        <mxPoint x="340" y="115" as="targetPoint"/>
                    </mxGeometry>
                </mxCell>
                <mxCell id="6" value="" style="shape=table;startSize=0;container=1;collapsible=0;childLayout=tableLayout;fontFamily=Verdana;labelBackgroundColor=#FF0080;labelBorderColor=none;whiteSpace=wrap;fillColor=#b0e3e6;strokeColor=#0e8088;" vertex="1" parent="1">
                    <mxGeometry x="100" y="80" width="110" height="70" as="geometry"/>
                </mxCell>
                <mxCell id="7" value="" style="shape=tableRow;horizontal=0;startSize=0;swimlaneHead=0;swimlaneBody=0;top=0;left=0;bottom=0;right=0;collapsible=0;dropTarget=0;fillColor=none;points=[[0,0.5],[1,0.5]];portConstraint=eastwest;" vertex="1" parent="6">
                    <mxGeometry width="110" height="70" as="geometry"/>
                </mxCell>
                <mxCell id="8" value="&lt;b style=&quot;font-size: 16px;&quot;&gt;&lt;font color=&quot;#2e1f1f&quot;&gt;click submit&lt;/font&gt;&lt;/b&gt;" style="shape=partialRectangle;html=1;whiteSpace=wrap;connectable=0;overflow=hidden;fillColor=none;top=0;left=0;bottom=0;right=0;pointerEvents=1;" vertex="1" parent="7">
                    <mxGeometry width="110" height="70" as="geometry">
                        <mxRectangle width="110" height="70" as="alternateBounds"/>
                    </mxGeometry>
                </mxCell>
                <mxCell id="20" value="" style="edgeStyle=none;html=1;fontFamily=Verdana;fontSize=17;fillColor=#d80073;strokeColor=#A50040;strokeWidth=5;" edge="1" parent="1" source="16">
                    <mxGeometry relative="1" as="geometry">
                        <mxPoint x="610" y="110" as="targetPoint"/>
                        <Array as="points">
                            <mxPoint x="590" y="108"/>
                        </Array>
                    </mxGeometry>
                </mxCell>
                <mxCell id="16" value="" style="shape=table;startSize=0;container=1;collapsible=0;childLayout=tableLayout;labelBackgroundColor=none;labelBorderColor=none;fontFamily=Verdana;fontSize=17;fillColor=#f5f5f5;fontColor=#333333;strokeColor=#666666;" vertex="1" parent="1">
                    <mxGeometry x="350" y="70" width="140" height="75" as="geometry"/>
                </mxCell>
                <mxCell id="17" value="" style="shape=tableRow;horizontal=0;startSize=0;swimlaneHead=0;swimlaneBody=0;top=0;left=0;bottom=0;right=0;collapsible=0;dropTarget=0;fillColor=none;points=[[0,0.5],[1,0.5]];portConstraint=eastwest;labelBackgroundColor=none;labelBorderColor=none;fontFamily=Verdana;fontSize=17;" vertex="1" parent="16">
                    <mxGeometry width="140" height="75" as="geometry"/>
                </mxCell>
                <object label="&lt;font color=&quot;#0a0a0a&quot;&gt;fetching detail&lt;/font&gt;" id="18">
                    <mxCell style="shape=partialRectangle;html=1;whiteSpace=wrap;connectable=0;overflow=hidden;fillColor=none;top=0;left=0;bottom=0;right=0;pointerEvents=1;labelBackgroundColor=none;labelBorderColor=none;fontFamily=Verdana;fontSize=17;" vertex="1" parent="17">
                        <mxGeometry width="140" height="75" as="geometry">
                            <mxRectangle width="140" height="75" as="alternateBounds"/>
                        </mxGeometry>
                    </mxCell>
                </object>
                <mxCell id="25" value="" style="edgeStyle=none;html=1;fontFamily=Verdana;fontSize=17;" edge="1" parent="1" source="21" target="24">
                    <mxGeometry relative="1" as="geometry"/>
                </mxCell>
                <mxCell id="21" value="" style="shape=table;startSize=0;container=1;collapsible=0;childLayout=tableLayout;labelBackgroundColor=none;labelBorderColor=none;fontFamily=Verdana;fontSize=17;fillColor=#f8cecc;strokeColor=#b85450;" vertex="1" parent="1">
                    <mxGeometry x="610" y="75" width="140" height="75" as="geometry"/>
                </mxCell>
                <mxCell id="22" value="" style="shape=tableRow;horizontal=0;startSize=0;swimlaneHead=0;swimlaneBody=0;top=0;left=0;bottom=0;right=0;collapsible=0;dropTarget=0;fillColor=none;points=[[0,0.5],[1,0.5]];portConstraint=eastwest;labelBackgroundColor=none;labelBorderColor=none;fontFamily=Verdana;fontSize=17;" vertex="1" parent="21">
                    <mxGeometry width="140" height="75" as="geometry"/>
                </mxCell>
                <object label="&lt;font color=&quot;#0a0a0a&quot;&gt;fetching image&lt;/font&gt;" id="23">
                    <mxCell style="shape=partialRectangle;html=1;whiteSpace=wrap;connectable=0;overflow=hidden;fillColor=none;top=0;left=0;bottom=0;right=0;pointerEvents=1;labelBackgroundColor=none;labelBorderColor=none;fontFamily=Verdana;fontSize=17;" vertex="1" parent="22">
                        <mxGeometry width="140" height="75" as="geometry">
                            <mxRectangle width="140" height="75" as="alternateBounds"/>
                        </mxGeometry>
                    </mxCell>
                </object>
                <mxCell id="26" style="edgeStyle=none;html=1;fontFamily=Verdana;fontSize=17;fillColor=#60a917;strokeColor=#2D7600;" edge="1" parent="1" source="24">
                    <mxGeometry relative="1" as="geometry">
                        <mxPoint x="680" y="410" as="targetPoint"/>
                    </mxGeometry>
                </mxCell>
                <mxCell id="24" value="&lt;font color=&quot;#000000&quot;&gt;fatching detail&lt;/font&gt;" style="ellipse;whiteSpace=wrap;html=1;fontSize=17;fontFamily=Verdana;startSize=0;labelBackgroundColor=none;labelBorderColor=none;fillColor=#fad9d5;strokeColor=#ae4132;" vertex="1" parent="1">
                    <mxGeometry x="625" y="227.5" width="110" height="102.5" as="geometry"/>
                </mxCell>
                <mxCell id="28" style="edgeStyle=none;html=1;strokeWidth=4;fontFamily=Verdana;fontSize=17;fontColor=#000000;fillColor=#0050ef;strokeColor=#001DBC;" edge="1" parent="1" source="27">
                    <mxGeometry relative="1" as="geometry">
                        <mxPoint x="480" y="470" as="targetPoint"/>
                    </mxGeometry>
                </mxCell>
                <mxCell id="27" value="arrenge&lt;br&gt;the&lt;br&gt;image" style="rhombus;whiteSpace=wrap;html=1;fontSize=17;fontFamily=Verdana;startSize=0;labelBackgroundColor=none;labelBorderColor=none;fillColor=#60a917;fontColor=#ffffff;strokeColor=#2D7600;rounded=1;arcSize=0;" vertex="1" parent="1">
                    <mxGeometry x="610" y="420" width="140" height="150" as="geometry"/>
                </mxCell>
                <mxCell id="29" value="" style="shape=table;startSize=0;container=1;collapsible=0;childLayout=tableLayout;labelBackgroundColor=none;labelBorderColor=none;fontFamily=Verdana;fontSize=17;fillColor=#fff2cc;strokeColor=#d6b656;" vertex="1" parent="1">
                    <mxGeometry x="330" y="400" width="140" height="110" as="geometry"/>
                </mxCell>
                <mxCell id="30" value="" style="shape=tableRow;horizontal=0;startSize=0;swimlaneHead=0;swimlaneBody=0;top=0;left=0;bottom=0;right=0;collapsible=0;dropTarget=0;fillColor=none;points=[[0,0.5],[1,0.5]];portConstraint=eastwest;labelBackgroundColor=none;labelBorderColor=none;fontFamily=Verdana;fontSize=17;" vertex="1" parent="29">
                    <mxGeometry width="140" height="110" as="geometry"/>
                </mxCell>
                <object label="&lt;font style=&quot;font-size: 22px;&quot; color=&quot;#0a0a0a&quot;&gt;add image&amp;nbsp;&lt;br&gt;detail&lt;br&gt;&lt;/font&gt;" id="31">
                    <mxCell style="shape=partialRectangle;html=1;whiteSpace=wrap;connectable=0;overflow=hidden;fillColor=none;top=0;left=0;bottom=0;right=0;pointerEvents=1;labelBackgroundColor=none;labelBorderColor=none;fontFamily=Verdana;fontSize=17;" vertex="1" parent="30">
                        <mxGeometry width="140" height="110" as="geometry">
                            <mxRectangle width="140" height="110" as="alternateBounds"/>
                        </mxGeometry>
                    </mxCell>
                </object>
            </root>
        </mxGraphModel>
    </diagram>
</mxfile>